<svg xmlns="http://www.w3.org/2000/svg" viewBox="0 0 64 64" role="img" aria-label="Vorexis-Claw">
  <defs>
    <linearGradient id="bolt" x1="12" y1="8" x2="52" y2="58" gradientUnits="userSpaceOnUse">
      <stop offset="0" stop-color="#A78BFA"/>
      <stop offset="0.52" stop-color="#8B5CF6"/>
      <stop offset="1" stop-color="#7C3AED"/>
    </linearGradient>
    <filter id="softGlow" x="-30%" y="-30%" width="160%" height="160%">
      <feGaussianBlur stdDeviation="1.6" result="blur"/>
      <feMerge>
        <feMergeNode in="blur"/>
        <feMergeNode in="SourceGraphic"/>
      </feMerge>
    </filter>
  </defs>
  <rect width="64" height="64" rx="14" fill="#050816"/>
  <path d="M36.5 6 23 31h9L23.5 58 45 25h-9l9.5-19z" fill="url(#bolt)" filter="url(#softGlow)"/>
  <path d="M18.5 41c-5-4.2-6.4-10.3-4.2-16.5 1.2-3.4 3.4-6 6.1-7.4" fill="none" stroke="#A78BFA" stroke-width="3.4" stroke-linecap="round"/>
  <path d="M23.2 46c-5.8-3.1-8.3-8.5-6.8-14.9.8-3.3 2.7-5.9 5.2-7.6" fill="none" stroke="#8B5CF6" stroke-width="2.8" stroke-linecap="round"/>
  <path d="M28.4 48.4c-5-2-7.2-6.2-6.4-11.8.5-3 2-5.3 4.1-6.9" fill="none" stroke="#7C3AED" stroke-width="2.4" stroke-linecap="round"/>
  <circle cx="14.2" cy="24.4" r="2.2" fill="#A78BFA"/>
  <circle cx="16.2" cy="31.3" r="1.7" fill="#8B5CF6"/>
  <circle cx="22" cy="36.6" r="1.6" fill="#7C3AED"/>
</svg>
